<?xml version="1.0" standalone="no"?>
<!DOCTYPE svg PUBLIC "-//W3C//DTD SVG 20010904//EN"
 "http://www.w3.org/TR/2001/REC-SVG-20010904/DTD/svg10.dtd">
<svg version="1.0" xmlns="http://www.w3.org/2000/svg"
 width="700.000000pt" height="700.000000pt" viewBox="0 0 700.000000 700.000000"
 preserveAspectRatio="xMidYMid meet">
<metadata>
Created by potrace 1.14, written by Peter Selinger 2001-2017
</metadata>
<g transform="translate(0.000000,700.000000) scale(0.100000,-0.100000)"
fill="#000000" stroke="none">
<path d="M1779 6996 c-2 -2 -35 -6 -74 -9 -221 -20 -483 -95 -688 -198 -476
-239 -808 -654 -947 -1183 -28 -108 -35 -140 -45 -221 -3 -22 -8 -51 -12 -65
-3 -14 -7 -108 -8 -210 -6 -363 56 -693 192 -1025 241 -591 655 -1086 1197
-1435 96 -61 374 -210 392 -210 5 0 24 66 41 148 107 486 346 969 689 1387 45
55 103 122 128 150 l46 50 -98 33 c-53 18 -160 51 -237 73 -222 63 -274 80
-378 121 -738 290 -1212 940 -1357 1863 -11 65 -18 121 -16 123 5 4 125 -150
220 -283 44 -60 82 -112 85 -115 3 -3 20 -25 36 -50 61 -90 232 -298 324 -394
300 -309 609 -470 1261 -660 245 -71 380 -122 493 -188 26 -15 50 -28 52 -28
3 0 27 -14 54 -31 l50 -30 80 55 c44 31 84 56 90 56 5 0 11 4 13 8 2 5 46 34
98 64 176 103 254 140 535 259 91 38 414 128 523 145 23 4 42 11 42 15 0 5
-25 60 -56 122 -452 901 -1328 1532 -2294 1652 -53 7 -425 16 -431 11z"/>
<path d="M4839 4806 c-2 -2 -29 -7 -59 -10 -30 -4 -73 -9 -95 -12 -60 -8 -248
-51 -350 -80 -278 -81 -611 -245 -871 -429 -94 -66 -283 -227 -384 -327 -405
-399 -683 -876 -815 -1398 -14 -54 -27 -115 -30 -136 -4 -22 -8 -46 -10 -54
-2 -8 -7 -37 -11 -65 -3 -27 -8 -61 -11 -75 -2 -14 -6 -124 -8 -245 -4 -267
12 -406 72 -615 111 -392 352 -746 658 -971 44 -32 85 -62 90 -67 16 -13 145
-87 203 -116 117 -59 349 -140 462 -161 14 -3 36 -7 50 -10 112 -22 216 -30
400 -30 220 0 357 14 539 56 25 6 56 13 69 15 57 11 258 77 362 119 200 80
523 260 649 360 9 7 63 51 121 97 93 73 320 291 406 388 54 62 181 227 232
302 177 265 345 631 407 888 21 90 35 151 40 180 3 19 10 60 15 90 5 30 12 75
15 100 11 69 13 427 4 500 -15 120 -31 215 -41 247 -5 17 -11 44 -14 60 -3 15
-23 81 -45 146 -209 626 -722 1077 -1379 1212 -63 13 -133 27 -155 30 -42 7
-510 17 -516 11z m1551 -667 c-5 -30 -12 -74 -15 -99 -10 -77 -66 -311 -97
-410 -121 -384 -312 -713 -553 -955 -144 -145 -244 -223 -409 -320 -184 -108
-373 -182 -646 -254 -576 -151 -939 -351 -1238 -680 -137 -152 -132 -146 -372
-466 -120 -159 -230 -303 -244 -320 l-27 -30 6 45 c16 119 47 283 69 370 2 8
12 44 21 80 17 67 78 249 95 285 5 11 21 49 36 85 127 313 387 653 649 851
238 179 443 274 826 384 319 92 480 151 681 249 213 104 367 214 528 376 156
156 203 213 457 560 173 238 233 314 240 307 1 -2 -1 -28 -7 -58z"/>
</g>
</svg>
